<svg xmlns="http://www.w3.org/2000/svg" width="40.979" height="45.811" viewBox="0 0 40.979 45.811">
  <path id="add-file" d="M28.9,21.652A12.079,12.079,0,1,0,40.979,33.731,12.093,12.093,0,0,0,28.9,21.652Zm0,20.579a8.5,8.5,0,1,1,8.5-8.5A8.51,8.51,0,0,1,28.9,42.231Zm5.368-8.5a1.789,1.789,0,0,1-1.789,1.789H30.69V37.31a1.789,1.789,0,1,1-3.579,0V35.521H25.321a1.789,1.789,0,0,1,0-3.579h1.789V30.152a1.789,1.789,0,1,1,3.579,0v1.789h1.789A1.789,1.789,0,0,1,34.269,33.731ZM16.105,44.021a1.789,1.789,0,0,1-1.789,1.789H7.158A7.166,7.166,0,0,1,0,38.652V12.96A6.956,6.956,0,0,1,2.028,8.033L7.937,2.071A7.045,7.045,0,0,1,12.908,0h16.25a7.166,7.166,0,0,1,7.158,7.158v9.484a1.789,1.789,0,0,1-3.579,0V7.157a3.583,3.583,0,0,0-3.579-3.579H12.908a3.442,3.442,0,0,0-2.429,1.013L4.57,10.553a3.414,3.414,0,0,0-.684.989H8.858a2.687,2.687,0,0,0,2.684-2.684,1.789,1.789,0,1,1,3.579,0,6.27,6.27,0,0,1-6.263,6.263H3.579V38.652a3.583,3.583,0,0,0,3.579,3.579h7.158a1.789,1.789,0,0,1,1.789,1.789Zm0,0" transform="translate(0 0)" fill="#003a48"/>
</svg>
