<svg xmlns="http://www.w3.org/2000/svg" width="40.554" height="45.811" viewBox="0 0 40.554 45.811">
  <path id="delete" d="M28.6,21.652A12.08,12.08,0,1,0,40.553,33.731,12.031,12.031,0,0,0,28.6,21.652Zm0,20.579a8.5,8.5,0,1,1,8.412-8.5A8.466,8.466,0,0,1,28.6,42.231Zm3.82-9.83L31.1,33.731l1.316,1.33a1.8,1.8,0,0,1,0,2.53,1.758,1.758,0,0,1-2.5,0L28.6,36.262l-1.315,1.329a1.758,1.758,0,0,1-2.5,0,1.8,1.8,0,0,1,0-2.53l1.316-1.33L24.78,32.4a1.8,1.8,0,0,1,0-2.53,1.758,1.758,0,0,1,2.5,0L28.6,31.2l1.315-1.329a1.758,1.758,0,0,1,2.5,0,1.8,1.8,0,0,1,0,2.53ZM15.938,44.021a1.78,1.78,0,0,1-1.771,1.789H7.083A7.129,7.129,0,0,1,0,38.652V12.96A6.994,6.994,0,0,1,2.007,8.033L7.854,2.071A6.936,6.936,0,0,1,12.774,0H28.856a7.129,7.129,0,0,1,7.084,7.158v9.484a1.771,1.771,0,1,1-3.542,0V7.157a3.565,3.565,0,0,0-3.542-3.579H12.774a3.389,3.389,0,0,0-2.4,1.013L4.522,10.553a3.415,3.415,0,0,0-.677.989h4.92a2.674,2.674,0,0,0,2.656-2.684,1.771,1.771,0,1,1,3.542,0,6.238,6.238,0,0,1-6.2,6.263H3.541V38.652a3.565,3.565,0,0,0,3.542,3.579h7.084a1.78,1.78,0,0,1,1.771,1.789Zm0,0" transform="translate(0 0)" fill="#003a48"/>
</svg>
