<svg xmlns="http://www.w3.org/2000/svg" width="42.429" height="47.929" viewBox="0 0 42.429 47.929">
  <path id="delete" d="M29.922,22.653A12.638,12.638,0,1,0,42.428,35.291,12.587,12.587,0,0,0,29.922,22.653Zm0,21.53a8.893,8.893,0,1,1,8.8-8.893A8.857,8.857,0,0,1,29.922,44.184Zm4-10.284-1.377,1.391,1.377,1.391a1.886,1.886,0,0,1,0,2.647,1.839,1.839,0,0,1-2.621,0l-1.376-1.391-1.376,1.391a1.839,1.839,0,0,1-2.621,0,1.886,1.886,0,0,1,0-2.647L27.3,35.291,25.925,33.9a1.886,1.886,0,0,1,0-2.647,1.839,1.839,0,0,1,2.62,0l1.377,1.391L31.3,31.252a1.839,1.839,0,0,1,2.62,0,1.886,1.886,0,0,1,0,2.647ZM16.674,46.056a1.862,1.862,0,0,1-1.853,1.872H7.411A7.459,7.459,0,0,1,0,40.439V13.559A7.317,7.317,0,0,1,2.1,8.4L8.218,2.167A7.256,7.256,0,0,1,13.364,0H30.19A7.459,7.459,0,0,1,37.6,7.488v9.923a1.853,1.853,0,1,1-3.706,0V7.488A3.73,3.73,0,0,0,30.19,3.744H13.364A3.545,3.545,0,0,0,10.849,4.8L4.731,11.04a3.573,3.573,0,0,0-.708,1.035H9.171A2.8,2.8,0,0,0,11.95,9.267a1.853,1.853,0,1,1,3.706,0A6.526,6.526,0,0,1,9.171,15.82H3.705v24.62a3.73,3.73,0,0,0,3.706,3.744h7.411a1.862,1.862,0,0,1,1.853,1.872Zm0,0" transform="translate(0 0)" fill="#505050"/>
</svg>
