<svg xmlns="http://www.w3.org/2000/svg" width="42.874" height="47.929" viewBox="0 0 42.874 47.929">
  <path id="add-file" d="M30.236,22.653A12.637,12.637,0,1,0,42.874,35.291,12.652,12.652,0,0,0,30.236,22.653Zm0,21.53a8.893,8.893,0,1,1,8.893-8.893A8.9,8.9,0,0,1,30.236,44.184Zm5.617-8.893a1.872,1.872,0,0,1-1.872,1.872H32.108v1.872a1.872,1.872,0,1,1-3.744,0V37.163H26.492a1.872,1.872,0,1,1,0-3.744h1.872V31.546a1.872,1.872,0,1,1,3.744,0v1.872h1.872A1.872,1.872,0,0,1,35.853,35.291Zm-19,10.765a1.872,1.872,0,0,1-1.872,1.872H7.489A7.5,7.5,0,0,1,0,40.439V13.559A7.277,7.277,0,0,1,2.122,8.4L8.3,2.167A7.371,7.371,0,0,1,13.505,0h17A7.5,7.5,0,0,1,38,7.488v9.923a1.872,1.872,0,0,1-3.744,0V7.488a3.749,3.749,0,0,0-3.744-3.744h-17A3.6,3.6,0,0,0,10.964,4.8L4.781,11.04a3.571,3.571,0,0,0-.716,1.035h5.2a2.812,2.812,0,0,0,2.808-2.808,1.872,1.872,0,1,1,3.744,0A6.56,6.56,0,0,1,9.267,15.82H3.744v24.62a3.749,3.749,0,0,0,3.744,3.744h7.489a1.872,1.872,0,0,1,1.872,1.872Zm0,0" transform="translate(0 0)" fill="#505050"/>
</svg>
