<svg id="save" xmlns="http://www.w3.org/2000/svg" width="42.056" height="45.811" viewBox="0 0 42.056 45.811">
  <g id="Grupo_8" data-name="Grupo 8">
    <g id="Grupo_7" data-name="Grupo 7">
      <path id="Caminho_8" data-name="Caminho 8" d="M41.542,10.1,32.782.559A1.684,1.684,0,0,0,31.542,0H18.4a1.836,1.836,0,0,0-1.752,1.909A1.836,1.836,0,0,0,18.4,3.818h6.133V15.27H11.39V1.909A1.836,1.836,0,0,0,9.638,0H5.257A5.512,5.512,0,0,0,0,5.726V40.085a5.512,5.512,0,0,0,5.257,5.726H36.8a5.512,5.512,0,0,0,5.257-5.726V11.453A2,2,0,0,0,41.542,10.1ZM30.666,41.993H11.39v-10.5H30.666Zm7.885-1.909A1.837,1.837,0,0,1,36.8,41.993H34.17V29.586a1.836,1.836,0,0,0-1.752-1.909H9.638a1.836,1.836,0,0,0-1.752,1.909V41.993H5.257A1.837,1.837,0,0,1,3.5,40.085V5.726A1.837,1.837,0,0,1,5.257,3.818H7.885V17.179a1.836,1.836,0,0,0,1.752,1.909H26.285a1.836,1.836,0,0,0,1.752-1.909V3.818h2.779l7.735,8.425Z" fill="#003a48"/>
    </g>
  </g>
  <g id="Grupo_10" data-name="Grupo 10" transform="translate(13.036 6.681)">
    <g id="Grupo_9" data-name="Grupo 9">
      <path id="Caminho_9" data-name="Caminho 9" d="M121.909,56A1.909,1.909,0,0,0,120,57.909v1.909a1.909,1.909,0,1,0,3.818,0V57.909A1.909,1.909,0,0,0,121.909,56Z" transform="translate(-120 -56)" fill="#003a48"/>
    </g>
  </g>
</svg>
